<?xml version="1.0" standalone="no"?>
<!DOCTYPE svg PUBLIC "-//W3C//DTD SVG 20010904//EN"
 "http://www.w3.org/TR/2001/REC-SVG-20010904/DTD/svg10.dtd">
<svg version="1.0" xmlns="http://www.w3.org/2000/svg"
 width="700.000000pt" height="394.000000pt" viewBox="0 0 700.000000 394.000000"
 preserveAspectRatio="xMidYMid meet">
<metadata>
Created by potrace 1.15, written by Peter Selinger 2001-2017
</metadata>
<g transform="translate(0.000000,394.000000) scale(0.100000,-0.100000)"
fill="#000000" stroke="none">
<path d="M0 1970 l0 -1970 3500 0 3500 0 0 1970 0 1970 -3500 0 -3500 0 0
-1970z m5403 1252 c0 -11 6 -20 12 -19 5 1 9 -3 8 -9 -1 -6 5 -11 13 -11 8 0
12 3 9 5 -3 3 1 12 8 21 10 14 10 14 -4 3 -13 -10 -18 -10 -28 1 -9 11 -6 14
12 13 37 -2 50 -15 35 -34 -10 -12 -10 -14 0 -8 9 5 12 -2 12 -27 0 -18 -3
-37 -7 -41 -8 -8 -9 -13 -12 -42 -1 -9 -6 -12 -13 -8 -10 6 -10 4 0 -8 11 -14
7 -22 -26 -57 -21 -23 -47 -41 -56 -41 -9 0 -15 -4 -12 -8 3 -5 -1 -9 -9 -9
-8 0 -11 5 -8 11 4 6 -1 5 -10 -3 -9 -7 -23 -11 -31 -8 -8 3 -16 2 -18 -4 -9
-26 -124 -9 -143 21 -3 5 -15 7 -26 5 -17 -4 -19 -2 -9 10 7 8 16 12 21 9 5
-3 8 0 7 8 -2 7 2 12 8 11 6 -1 11 4 11 12 0 8 -5 11 -11 7 -6 -4 -15 -7 -21
-7 -5 -1 -9 -7 -7 -13 1 -7 -19 -22 -45 -33 -27 -12 -90 -41 -141 -65 -51 -24
-94 -44 -96 -44 -2 0 -57 -25 -122 -56 -149 -70 -235 -106 -240 -101 -4 4 82
45 351 167 280 127 269 120 270 151 1 15 -4 26 -11 26 -7 0 -10 -5 -6 -11 12
-19 10 -33 -4 -33 -8 0 -10 5 -5 11 4 6 2 22 -5 36 -12 22 -19 21 -15 -3 1 -5
-3 -6 -8 -3 -5 3 -7 16 -3 28 4 16 2 19 -9 13 -11 -7 -12 -6 -3 6 9 12 11 33
4 42 -9 11 -5 38 7 48 11 10 14 10 11 -2 -2 -8 3 -13 10 -11 8 1 11 -2 7 -8
-3 -6 -10 -8 -15 -5 -5 3 -11 2 -14 -3 -2 -4 6 -8 18 -8 16 0 23 5 21 16 -2 8
-4 15 -5 15 -1 0 -3 7 -5 16 -2 11 3 16 14 14 9 -1 24 5 34 13 10 9 17 12 15
7 -2 -6 2 -10 7 -10 6 0 9 4 7 8 -7 23 20 -8 34 -38 9 -19 20 -35 25 -35 5 0
9 -6 9 -13 0 -8 12 -19 26 -25 14 -7 22 -17 19 -22 -4 -6 -1 -9 7 -8 7 2 12
-2 11 -9 -2 -12 21 -12 33 0 4 4 13 2 19 -3 9 -7 17 -5 26 7 13 16 12 17 -3 4
-26 -20 -22 -4 7 31 14 16 25 38 25 49 0 16 -3 17 -25 7 -14 -6 -28 -8 -31 -5
-13 13 6 35 35 42 25 5 31 12 31 33 0 31 20 17 23 -16z m-4127 -87 c-1 -5 -5
-15 -9 -21 -4 -8 3 -11 23 -9 17 1 28 -2 27 -9 -1 -6 4 -10 11 -8 6 1 11 -4
10 -10 -2 -7 2 -12 8 -11 6 1 11 -4 11 -11 0 -8 -11 -12 -28 -11 -16 1 -34 -4
-40 -11 -6 -8 -16 -11 -23 -7 -6 4 -5 -1 2 -10 12 -14 11 -16 -6 -12 -14 2
-19 -2 -18 -18 1 -19 -4 -22 -44 -23 -39 0 -50 5 -88 40 -24 23 -51 41 -60 41
-23 0 -44 14 -37 25 3 5 14 7 25 5 11 -2 22 1 25 6 4 5 11 6 17 3 7 -4 8 -2 4
5 -6 9 -12 9 -24 -1 -15 -12 -15 -11 -4 4 7 9 22 15 32 13 10 -2 27 6 37 18
12 14 13 17 2 9 -12 -9 -16 -9 -16 1 0 9 23 12 82 12 50 0 82 -4 81 -10z
m2575 -15 c89 -17 100 -19 120 -25 24 -8 25 -24 2 -19 -10 2 -39 5 -65 7 -37
3 -48 1 -48 -10 0 -8 4 -12 8 -9 5 3 9 -1 9 -9 0 -8 -3 -13 -5 -10 -8 7 -42
-26 -37 -35 4 -7 -58 -5 -82 2 -5 1 -24 -4 -43 -11 -34 -13 -35 -13 -11 -22
39 -15 18 -21 -35 -9 -43 10 -50 9 -64 -8 -17 -22 -106 -82 -121 -82 -23 0 -5
39 31 66 22 16 40 33 40 37 0 5 5 5 12 1 6 -4 8 -3 4 4 -3 6 2 13 11 16 10 2
0 3 -21 0 -22 -2 -51 -10 -65 -17 -26 -12 -28 -18 -30 -91 -1 -22 -3 -37 -6
-34 -10 10 -17 98 -9 116 4 9 8 21 8 27 2 16 69 34 167 43 75 8 93 13 105 31
9 12 20 18 27 14 12 -7 77 -12 77 -6 0 2 -11 8 -25 13 -14 5 -25 14 -25 20 0
12 3 12 71 0z m-761 -74 c7 -14 17 -26 22 -26 5 0 -6 -13 -24 -29 l-33 -30
-27 27 -28 26 0 -24 c0 -13 3 -21 6 -17 4 3 14 -4 24 -16 17 -21 19 -21 37 -5
11 10 34 23 52 29 23 8 29 14 20 20 -14 8 24 27 130 65 l53 19 19 -24 c22 -27
23 -32 7 -54 -15 -19 -58 -13 -58 9 0 23 -19 25 -75 8 -39 -13 -52 -21 -45
-29 7 -8 2 -19 -15 -35 -23 -22 -24 -25 -8 -42 14 -16 14 -18 0 -18 -8 0 -17
6 -20 13 -2 6 -8 9 -12 5 -4 -4 12 -32 36 -62 24 -30 52 -67 62 -81 22 -30 42
-24 24 7 -6 12 -29 40 -49 62 -21 22 -35 43 -32 46 3 3 12 -4 20 -14 8 -11 14
-16 14 -10 0 5 6 -2 13 -16 7 -14 22 -26 32 -26 11 -1 26 -2 33 -3 6 -1 12 -9
12 -19 0 -10 3 -22 8 -26 4 -4 7 -11 7 -15 0 -3 17 -27 37 -51 32 -40 41 -45
72 -44 20 1 36 -2 36 -7 0 -5 20 -35 45 -68 25 -32 45 -64 45 -70 0 -9 34 -16
61 -13 4 1 14 -7 23 -17 15 -16 15 -19 1 -31 -25 -21 -18 -38 15 -35 25 2 28
0 19 -11 -6 -8 -16 -11 -23 -7 -6 4 -5 -1 2 -10 12 -14 11 -16 -6 -12 -14 2
-19 -2 -18 -18 1 -17 -4 -22 -21 -21 -13 1 -20 -3 -17 -7 3 -5 10 -6 16 -3 6
4 8 2 4 -4 -3 -6 -15 -9 -26 -7 -26 5 -26 -17 0 -40 17 -15 26 -16 18 -1 -2 3
8 16 21 30 14 14 21 26 17 26 -3 0 9 16 29 36 19 19 33 39 30 45 -4 5 18 7 54
4 47 -3 62 0 73 12 9 12 10 15 1 9 -19 -11 -16 -1 4 15 11 10 14 10 9 2 -9
-16 6 -17 22 -1 18 18 15 27 -8 23 -11 -2 -18 0 -15 5 3 5 22 12 43 16 20 4
50 16 67 26 l30 20 -30 -7 c-16 -4 -45 -11 -63 -15 -17 -4 -34 -5 -36 -1 -10
16 14 33 49 37 20 2 42 7 48 12 7 4 19 8 27 7 8 -1 25 2 38 7 18 6 22 4 22
-12 0 -11 -6 -20 -14 -20 -8 0 -29 -14 -47 -32 -23 -21 -27 -27 -11 -19 21 11
33 -1 13 -13 -5 -4 -4 -16 2 -30 7 -13 14 -23 18 -21 3 2 6 -2 6 -10 0 -8 -3
-12 -7 -10 -4 2 -7 -2 -7 -10 0 -8 4 -12 9 -9 4 3 5 -9 2 -26 -5 -22 -2 -36
11 -50 26 -29 36 -25 19 8 -19 37 -18 45 9 71 21 19 25 20 37 6 7 -8 15 -13
19 -10 10 5 8 -57 -2 -72 -5 -8 -1 -11 12 -8 18 3 24 -16 8 -31 -4 -4 -2 -13
4 -20 7 -8 7 -14 -1 -19 -8 -5 -7 -11 2 -23 10 -12 10 -14 1 -8 -8 4 -13 1
-13 -9 0 -9 -4 -14 -8 -11 -5 3 -9 -1 -9 -9 0 -8 4 -12 9 -9 4 3 8 -2 8 -11 0
-9 4 -14 8 -11 5 3 9 -1 9 -8 0 -7 -6 -13 -13 -13 -7 0 -11 4 -8 8 2 4 0 10
-5 13 -5 4 -8 -2 -6 -11 2 -10 4 -18 5 -18 1 0 3 -8 5 -17 3 -18 -11 -33 -30
-33 -13 0 -14 -41 -2 -80 11 -34 33 -62 24 -30 -4 12 6 42 24 75 27 50 36 40
14 -14 -7 -15 -5 -17 6 -11 11 7 11 5 -1 -10 -9 -11 -10 -16 -2 -11 9 5 12 -9
12 -58 0 -45 4 -65 12 -64 6 2 17 -7 23 -19 7 -13 15 -20 18 -16 4 3 7 -1 7
-11 0 -9 5 -14 10 -11 6 3 10 -1 10 -10 0 -9 4 -14 9 -11 5 3 15 -2 22 -11 8
-9 9 -14 3 -10 -15 9 -72 19 -124 22 -25 2 -45 4 -45 5 0 1 -31 3 -70 4 -93 5
-168 16 -178 27 -4 5 -4 7 -1 4 4 -3 13 0 21 6 11 9 11 15 1 28 -7 9 -8 13 -4
9 10 -8 35 32 29 45 -8 14 -25 7 -20 -8 4 -8 1 -17 -6 -21 -7 -4 -9 -4 -5 1 4
4 2 15 -4 23 -18 22 -19 49 -2 56 8 3 12 11 8 17 -4 7 -3 9 3 6 6 -4 19 3 29
16 10 12 12 16 4 10 -10 -10 -17 -10 -28 -1 -31 26 -59 9 -32 -18 8 -8 6 -15
-6 -25 -10 -8 -15 -9 -11 -2 4 6 3 14 -2 17 -12 8 -18 -2 -22 -39 -3 -24 -1
-29 14 -27 9 2 17 -2 17 -8 0 -6 5 -8 10 -5 6 3 10 -1 10 -10 0 -9 -4 -14 -8
-11 -4 2 -23 -11 -42 -30 -30 -32 -35 -33 -41 -17 -7 17 -8 17 -8 -1 -1 -11
-4 -17 -7 -14 -3 4 -17 0 -32 -7 -23 -13 -28 -12 -48 10 -13 14 -29 25 -36 25
-7 0 -26 7 -41 15 -15 8 -25 10 -22 6 3 -5 -4 -7 -14 -4 -12 3 -17 11 -14 19
3 8 -1 14 -8 15 -8 0 -5 4 7 9 15 6 20 16 18 39 -2 35 11 51 19 22 3 -12 18
-20 48 -25 24 -4 45 -8 46 -8 2 -1 23 -4 48 -8 l45 -7 0 32 c0 27 4 32 23 31
18 -1 21 4 19 23 -2 13 1 27 6 30 10 6 15 39 13 71 -1 11 -12 16 -35 16 -38 0
-41 -13 -11 -46 l19 -21 -30 16 c-16 8 -36 15 -44 15 -9 0 -5 -6 9 -13 13 -6
23 -16 22 -21 -2 -5 3 -13 11 -17 9 -6 7 -9 -9 -9 -13 0 -23 -4 -23 -10 0 -5
5 -10 10 -10 6 0 10 -5 10 -10 0 -6 -10 -8 -22 -5 -22 5 -41 8 -115 22 -29 5
-31 4 -26 -18 l6 -24 -25 23 c-23 21 -34 52 -17 52 4 0 42 -7 85 -15 43 -8 80
-13 82 -10 5 5 -29 19 -63 27 -17 4 -15 8 15 21 l35 17 -62 -4 c-35 -2 -63 1
-63 5 0 5 -5 9 -12 9 -6 0 -4 -7 6 -18 15 -18 15 -19 -11 -17 -22 1 -27 6 -25
22 2 18 -2 20 -29 18 -17 -2 -35 -9 -40 -16 -6 -10 -9 -6 -9 13 0 18 6 29 21
33 16 5 18 10 8 21 -6 7 -15 11 -20 8 -16 -9 -10 43 6 56 9 7 13 15 10 19 -9
8 -55 9 -49 0 2 -4 0 -10 -5 -13 -5 -3 -7 -16 -3 -28 3 -13 1 -19 -5 -15 -5 3
-10 0 -10 -8 0 -8 3 -12 7 -10 4 2 7 -2 7 -10 0 -8 -4 -12 -9 -9 -4 3 -8 -2
-8 -11 0 -9 -4 -14 -8 -11 -5 3 -9 -1 -9 -9 0 -8 4 -12 9 -9 17 10 7 -3 -19
-27 -14 -13 -23 -17 -18 -9 6 12 5 13 -5 3 -11 -10 -16 -9 -25 4 -15 20 -35 9
-28 -15 2 -10 -3 -25 -13 -33 -16 -12 -17 -12 -9 1 7 12 6 13 -6 4 -8 -6 -21
-10 -30 -9 -12 2 -15 -3 -12 -15 3 -10 0 -21 -6 -24 -7 -4 -11 1 -11 13 0 19
-10 26 -32 22 -5 0 -7 2 -6 7 1 4 -4 35 -12 70 -10 51 -16 62 -29 57 -13 -5
-14 -4 -3 6 20 21 14 29 -20 29 -28 1 -30 2 -15 11 9 5 22 7 27 4 13 -8 13 2
-2 64 -6 28 -15 51 -19 51 -4 0 -6 9 -4 20 2 11 -1 22 -6 25 -5 4 -6 11 -3 17
5 7 2 8 -5 4 -18 -11 -123 -17 -117 -7 3 5 17 12 30 15 30 7 144 74 153 90 3
6 3 8 -2 4 -5 -5 -13 2 -19 15 -8 14 -20 22 -34 21 l-23 -1 23 26 23 26 -25
-20 c-14 -11 -28 -24 -31 -28 -3 -5 -10 -9 -15 -9 -5 -1 -19 -7 -30 -15 -21
-13 -64 -26 -64 -18 0 2 21 16 48 32 58 33 132 92 132 105 0 5 -4 7 -9 4 -4
-3 -18 3 -30 13 l-22 20 48 50 c44 45 48 57 21 52 -5 0 -7 5 -5 12 1 6 -4 11
-10 10 -7 -2 -12 2 -10 9 1 7 -9 12 -23 13 -16 1 -24 6 -22 15 3 10 -3 9 -17
-4 -12 -11 -21 -16 -21 -12 0 4 -5 4 -10 1 -6 -4 -8 -11 -4 -16 4 -6 11 -6 19
1 10 8 15 8 21 -2 4 -7 4 -10 -1 -6 -4 4 -14 3 -22 -4 -11 -9 -11 -13 2 -28
13 -15 10 -21 -36 -66 -41 -40 -51 -46 -59 -34 -7 11 -4 17 10 24 13 6 18 15
15 27 -3 9 0 21 6 25 9 5 10 2 5 -11 -5 -15 -4 -16 9 -5 15 12 15 14 0 23 -13
7 -14 11 -3 25 11 13 11 14 -2 7 -13 -8 -13 -6 -1 8 7 9 11 23 8 32 -4 8 -2
17 3 20 4 3 10 1 12 -4 1 -5 31 13 65 41 67 55 76 73 19 40 -20 -12 -35 -16
-33 -9 1 7 -10 10 -33 8 -31 -3 -33 -1 -20 14 9 11 15 13 20 4 4 -6 13 -8 19
-5 6 4 9 12 5 17 -3 5 -9 7 -14 4 -5 -3 -12 -1 -15 5 -5 8 -11 7 -21 -1 -11
-9 -18 -8 -32 3 -9 9 -28 19 -42 23 -22 7 -23 6 -11 -8 7 -9 17 -15 21 -12 4
2 15 -4 24 -14 15 -16 15 -19 1 -31 -8 -7 -15 -20 -15 -30 0 -9 -17 -33 -37
-53 -92 -90 -123 -124 -123 -136 0 -12 -13 -10 -58 7 -7 2 -12 -1 -10 -8 2 -7
-3 -15 -9 -17 -7 -3 -13 0 -13 6 0 17 40 84 61 102 11 9 19 21 19 26 0 6 14
14 31 19 41 12 41 25 0 39 l-33 11 68 63 c70 64 126 95 156 88 9 -3 28 7 44
24 31 32 51 28 74 -15z m-380 -131 c-13 -14 -35 -25 -49 -25 -25 0 -25 -1 8
-21 l34 -20 -30 -32 c-16 -18 -36 -45 -43 -61 -8 -16 -36 -53 -62 -81 -26 -29
-45 -55 -41 -59 3 -3 1 -6 -5 -6 -7 0 -12 8 -12 18 -1 15 -2 15 -12 -3 -13
-21 -14 -24 -20 -62 -7 -41 -16 -34 -11 8 6 47 -4 46 -47 -5 -40 -46 -42 -54
-16 -49 21 4 23 2 19 -21 -4 -20 -14 -28 -47 -37 -22 -7 -58 -12 -78 -13 -22
-1 -38 -6 -39 -13 -3 -31 -7 -53 -8 -55 -2 -2 -4 -13 -7 -25 -4 -23 10 -31 21
-13 4 6 11 8 16 4 5 -3 9 -2 8 3 -3 20 2 25 15 14 11 -9 16 -9 22 0 4 7 3 9
-3 6 -6 -4 -16 0 -23 8 -10 12 -8 13 10 10 17 -3 19 -1 11 9 -9 10 -5 12 17
11 15 -1 33 3 41 9 12 9 13 8 6 -4 -6 -12 -5 -13 5 -3 11 10 17 10 29 0 12
-10 13 -9 6 2 -5 10 -4 12 3 7 7 -4 12 -22 12 -40 0 -32 -2 -34 -42 -39 -66
-9 -101 -17 -114 -28 -6 -5 -15 -5 -20 -1 -4 4 -2 -2 6 -12 13 -18 13 -19 0
-11 -12 6 -13 5 -3 -5 8 -9 9 -18 3 -25 -14 -16 14 -16 74 1 49 14 94 19 84 9
-8 -8 -188 -52 -193 -47 -3 3 0 11 6 18 6 7 9 25 6 41 -4 26 -4 26 -6 -5 0
-19 -5 -31 -11 -27 -6 3 -10 -5 -10 -19 0 -15 -5 -23 -14 -22 -23 3 -46 27
-39 39 4 6 8 25 9 42 1 16 2 31 4 33 2 2 6 13 9 28 0 4 8 1 16 -6 8 -7 15 -11
16 -9 7 39 7 49 -2 49 -8 0 -8 4 0 14 7 8 13 29 15 48 7 66 17 90 32 77 8 -6
11 -16 7 -23 -13 -20 -11 -35 3 -29 13 5 18 17 15 35 0 4 18 25 41 47 34 31
46 37 61 30 19 -11 37 -4 37 13 0 6 -9 8 -20 5 -11 -3 -20 -1 -20 5 0 5 -5 6
-12 2 -6 -4 -8 -3 -4 4 3 6 2 13 -4 17 -5 3 -10 2 -10 -3 0 -14 -68 -81 -75
-74 -3 3 -5 -2 -5 -12 0 -9 -5 -14 -10 -11 -6 4 -8 10 -5 15 3 5 0 12 -6 16
-7 4 -9 3 -6 -3 4 -6 0 -14 -9 -17 -23 -9 -28 -1 -14 23 6 12 8 21 4 21 -3 0
0 7 7 16 13 16 23 51 11 39 -4 -4 -7 -12 -7 -18 -1 -7 -7 -11 -14 -9 -7 1 -10
-2 -7 -6 3 -5 -3 -17 -14 -27 -11 -10 -17 -21 -14 -26 2 -4 -4 -6 -15 -4 -11
2 -27 -6 -38 -18 -18 -21 -18 -21 2 -7 19 14 19 14 6 -3 -11 -14 -16 -15 -29
-5 -13 11 -14 11 -8 -1 7 -10 4 -12 -12 -7 -13 4 -22 2 -25 -6 -2 -7 -2 -2 0
12 5 29 58 88 91 101 29 11 28 25 -4 36 -26 9 -25 10 56 76 79 65 138 96 73
38 l-33 -29 23 -15 c19 -13 20 -18 10 -36 -20 -33 -15 -47 7 -23 12 12 30 22
40 22 11 0 20 5 20 10 0 6 -6 10 -12 10 -7 0 -20 5 -28 10 -12 7 -11 13 10 34
13 15 20 26 15 26 -5 0 4 13 19 29 16 16 34 27 42 24 7 -3 25 5 40 16 42 33
51 25 15 -12 l-32 -34 23 -16 23 -15 -45 -48 c-25 -26 -40 -44 -33 -40 6 3 14
2 17 -3 3 -5 -3 -11 -14 -14 -11 -3 -20 -13 -20 -22 0 -10 5 -13 12 -9 7 4 8
3 4 -4 -8 -13 4 -16 19 -4 20 14 64 80 58 86 -4 3 0 6 9 6 8 0 24 11 36 25 12
14 31 25 42 25 27 0 25 13 -4 26 -18 8 -28 8 -35 1 -21 -21 -11 0 12 25 30 33
128 114 147 121 8 3 24 6 34 6 18 1 18 -1 -4 -24z m747 -158 c5 -3 32 -9 59
-13 27 -3 55 -11 63 -18 12 -9 13 -8 6 4 -7 12 -6 13 7 3 8 -7 17 -11 20 -8 3
3 6 -27 7 -66 2 -83 -11 -110 -40 -83 -11 10 -19 13 -19 9 0 -4 -9 0 -21 11
-12 10 -24 19 -28 19 -3 0 -5 3 -4 7 2 4 -7 5 -18 3 -18 -4 -19 -2 -8 13 7 9
9 14 4 9 -11 -9 -46 23 -38 36 3 5 1 7 -4 4 -6 -4 -16 0 -23 8 -7 8 -16 12
-21 9 -5 -3 -8 0 -7 8 2 7 -2 12 -7 11 -6 -1 -11 9 -11 21 0 21 4 23 37 21 21
-2 41 -5 46 -8z m-809 -130 c10 -8 9 -12 -5 -22 -10 -7 -21 -12 -24 -11 -4 0
-16 -7 -26 -17 -11 -9 -22 -15 -25 -12 -3 3 -11 -1 -17 -9 -10 -11 -9 -14 2
-12 8 1 21 7 28 13 8 6 22 9 32 8 9 -2 17 0 17 5 0 4 6 10 14 13 10 4 12 -2 7
-25 -4 -18 -13 -32 -23 -34 -9 -1 -32 -7 -50 -12 -18 -6 -45 -13 -61 -16 -27
-6 -27 -6 -23 39 3 33 11 51 28 64 13 10 34 28 48 39 25 20 41 18 78 -11z
m1455 19 c9 -7 17 -21 17 -30 0 -19 -2 -19 80 -1 36 7 66 12 68 10 11 -11 -15
-25 -66 -35 -31 -6 -64 -14 -72 -17 -8 -3 -28 -8 -45 -10 -16 -3 -34 -9 -40
-14 -13 -13 5 -41 29 -45 15 -2 15 0 4 14 -8 10 -9 13 -1 9 6 -4 14 -3 18 3
11 17 25 11 25 -12 0 -19 1 -20 18 -5 17 16 20 17 48 17 8 0 13 4 10 8 -3 5 1
9 9 9 8 0 11 -5 8 -11 -4 -6 1 -5 10 3 9 7 17 10 17 6 0 -4 6 -2 14 4 11 10
17 7 30 -11 15 -21 23 -48 10 -36 -3 3 -22 2 -42 -3 -20 -5 -57 -12 -81 -14
-53 -6 -50 -5 -53 -38 -1 -14 -6 -23 -10 -21 -5 3 -5 11 -1 17 3 7 -3 4 -14
-6 -13 -11 -23 -14 -27 -8 -4 5 -15 8 -25 6 -16 -3 -18 3 -18 38 0 23 -1 62
-2 87 -4 70 -3 75 27 87 36 14 34 14 55 -1z m377 -146 c0 -5 -11 -12 -25 -16
-14 -3 -23 -10 -20 -14 3 -5 0 -12 -6 -16 -8 -4 -9 -3 -5 4 13 22 -12 12 -41
-14 -15 -15 -19 -20 -9 -13 12 9 6 -6 -16 -36 -45 -64 -58 -104 -60 -185 -2
-106 0 -128 17 -126 24 3 26 10 29 92 1 45 9 90 17 104 34 60 85 100 128 100
15 0 21 10 27 43 4 23 7 45 6 50 -3 12 26 8 34 -5 4 -6 3 -8 -4 -4 -7 4 -14
-10 -20 -36 -10 -50 -11 -47 14 -51 10 -1 25 -6 31 -10 9 -6 11 -3 6 9 -5 14
-3 16 11 11 9 -4 15 -3 12 2 -3 5 1 14 9 21 12 10 13 16 4 26 -6 8 -17 14 -25
14 -7 0 -15 4 -18 8 -8 14 39 5 70 -13 32 -19 74 -75 74 -98 0 -7 9 -32 20
-55 11 -22 20 -51 19 -64 0 -14 -7 -3 -17 28 -9 28 -24 61 -32 74 -14 20 -18
20 -43 9 -23 -10 -28 -18 -25 -43 l3 -31 -62 0 c-34 1 -60 -2 -57 -6 7 -12
-27 -40 -39 -32 -7 3 -9 3 -5 -2 4 -4 2 -15 -5 -23 -8 -11 -4 -10 16 3 15 10
30 15 33 12 4 -3 -8 -14 -25 -25 -17 -10 -28 -23 -23 -28 4 -4 -1 -3 -10 5
-16 12 -16 14 1 44 10 18 23 31 28 30 5 -1 10 5 10 13 0 21 -21 17 -47 -11
-12 -13 -26 -22 -30 -20 -4 3 -13 -1 -19 -8 -8 -10 -7 -14 4 -14 8 0 11 5 8
10 -3 6 -1 7 6 3 9 -6 9 -11 0 -22 -6 -8 -8 -14 -4 -14 4 0 1 -7 -6 -16 -15
-19 -21 -47 -8 -38 5 3 6 11 3 17 -4 7 -3 8 2 4 5 -5 9 -12 9 -15 0 -4 4 -13
9 -21 6 -9 5 -12 -1 -8 -5 3 -10 0 -10 -8 0 -8 5 -13 11 -12 6 1 10 -4 8 -11
-1 -6 4 -11 10 -10 7 2 12 -3 10 -10 -1 -6 4 -11 10 -10 7 2 12 -2 11 -8 -1
-7 6 -10 18 -7 20 5 19 6 -5 32 -26 27 -41 77 -26 86 5 3 7 -3 5 -14 -2 -11 5
-27 16 -36 10 -10 16 -23 12 -29 -4 -6 2 -4 13 5 10 9 26 15 35 14 15 -3 15 0
3 24 -18 35 -18 85 1 101 12 10 13 16 4 26 -6 8 -16 11 -22 7 -6 -4 -7 -1 -2
6 5 9 10 10 18 2 7 -7 14 -7 23 0 8 7 14 7 19 -1 4 -6 3 -9 -2 -8 -4 2 -9 0
-10 -4 -2 -5 0 -9 5 -10 15 -3 33 -28 35 -48 1 -22 17 -26 33 -10 8 8 15 6 24
-5 7 -8 9 -15 5 -15 -4 0 -3 -6 2 -12 6 -9 5 -22 -3 -38 -8 -14 -14 -21 -14
-17 0 9 -35 -23 -35 -32 0 -3 -3 -11 -7 -17 -4 -6 -1 -11 7 -11 8 0 12 3 10 7
-3 4 5 16 18 26 21 19 21 19 7 0 -8 -11 -15 -26 -16 -35 -1 -22 -14 -53 -33
-76 -15 -18 -15 -19 1 -7 9 8 19 9 22 4 3 -5 20 -7 38 -3 49 10 71 56 74 155
4 112 4 114 13 91 11 -27 3 -118 -16 -185 -8 -30 -16 -60 -17 -66 -1 -7 -7
-18 -14 -26 -6 -8 -9 -18 -5 -21 3 -4 0 -9 -8 -11 -67 -24 -73 -28 -60 -35 8
-6 -2 -15 -33 -30 -47 -22 -110 -28 -121 -12 -3 5 -17 8 -31 5 -14 -3 -32 0
-39 6 -8 6 -29 13 -47 15 -18 2 -34 4 -35 5 -2 2 -6 3 -10 4 -5 1 -12 4 -18 7
-5 4 -18 5 -27 4 -9 -2 -23 4 -30 13 -7 9 -8 13 -2 9 6 -3 11 0 11 8 0 7 -8
12 -17 10 -11 -2 -16 4 -16 20 0 17 5 22 19 19 16 -3 17 -1 6 12 -10 12 -10
15 1 12 14 -3 22 37 11 57 -3 6 -6 13 -7 18 -1 4 -2 8 -4 10 -4 5 -10 57 -7
57 3 0 11 -8 18 -17 10 -11 10 -14 2 -9 -17 10 -16 1 1 -13 12 -10 13 -3 10
46 -10 132 -10 170 -4 200 5 20 4 33 -3 36 -15 5 10 65 42 100 45 49 161 97
161 67z m-1763 -63 c-1 -6 18 -11 43 -11 27 -1 44 -5 43 -12 -1 -6 6 -11 15
-11 23 1 57 -16 59 -29 1 -6 -16 -10 -40 -10 -29 1 -41 -3 -39 -12 2 -9 -2
-11 -10 -5 -7 4 -16 8 -20 9 -5 1 -9 3 -10 4 -10 9 -60 5 -69 -6 -6 -7 -19
-11 -31 -9 -16 4 -18 2 -8 -10 10 -12 7 -17 -16 -25 -16 -6 -51 -16 -79 -21
-27 -5 -61 -12 -73 -15 -13 -3 -21 -1 -18 4 3 5 18 12 33 15 16 3 32 16 38 29
6 13 16 22 22 21 7 -2 10 6 8 17 -2 11 1 20 7 20 6 0 9 2 7 5 -3 2 -21 0 -40
-6 -62 -19 -92 -22 -87 -8 5 15 161 59 201 57 24 -2 27 -6 27 -36 0 -18 4 -31
9 -27 6 3 8 14 6 25 -2 12 0 18 6 15 5 -4 6 -12 3 -18 -4 -7 -4 -9 1 -5 4 4
14 3 21 -3 8 -7 14 -7 19 1 4 6 1 9 -7 8 -7 -2 -12 4 -10 12 2 8 0 12 -4 8 -9
-10 -34 10 -34 27 0 6 7 12 14 12 8 0 14 -5 13 -10z m2094 -24 c8 -6 19 -13
24 -15 6 -1 9 -6 8 -10 -2 -4 7 -5 18 -3 17 3 19 1 9 -10 -8 -10 -8 -15 0 -20
8 -5 4 -15 -11 -31 l-23 -25 23 -6 c16 -4 19 -8 10 -14 -10 -6 -10 -11 0 -23
7 -9 17 -13 23 -10 5 3 8 -17 6 -49 -2 -31 -5 -55 -8 -54 -3 1 -5 -2 -5 -8 0
-5 3 -9 6 -8 3 1 6 -4 6 -11 0 -7 -6 -13 -13 -13 -7 0 -12 5 -11 11 1 6 -5 10
-13 8 -11 -3 -10 2 4 17 17 19 15 26 -6 22 -5 0 -7 5 -5 12 1 6 -4 11 -10 10
-7 -2 -12 3 -10 10 1 6 -3 11 -9 10 -12 -2 -13 76 0 95 5 8 3 12 -6 10 -7 -2
-12 3 -10 10 1 8 -2 11 -7 8 -11 -7 -33 18 -24 28 12 12 12 35 0 33 -7 -1 -10
5 -9 13 2 8 0 12 -4 8 -4 -4 -12 -3 -19 2 -8 7 -12 5 -12 -5 0 -8 5 -11 10 -8
6 4 7 1 2 -7 -6 -9 -4 -11 5 -5 9 6 11 4 5 -5 -5 -8 -4 -11 3 -6 6 3 13 3 16
-2 2 -4 -6 -8 -19 -8 -13 0 -23 5 -22 11 1 5 -5 9 -13 7 -8 -2 -12 0 -7 4 4 4
0 15 -8 24 -13 14 -10 16 39 15 29 0 60 -6 67 -12z m-1810 -90 c13 -13 8 -16
-36 -26 -11 -3 -1 -5 23 -6 44 -1 60 -21 17 -21 -51 0 -156 -33 -211 -66 -68
-41 -86 -43 -53 -6 l24 27 -31 -27 c-37 -34 -48 -36 -34 -5 10 20 9 20 -9 -3
-11 -14 -23 -21 -27 -17 -4 4 18 32 49 62 42 41 49 52 28 41 -33 -18 -101 -93
-101 -113 0 -7 -9 -27 -20 -45 -21 -34 -28 -104 -10 -93 6 3 10 0 10 -9 0 -15
-16 -16 -39 -2 -9 6 -12 5 -8 -1 4 -6 0 -16 -8 -23 -8 -7 -15 -19 -15 -27 0
-8 -5 -11 -10 -8 -6 4 -8 10 -5 15 3 5 8 28 11 52 3 24 10 47 15 53 18 19 9
33 -21 30 -25 -2 -28 0 -19 11 6 8 31 23 54 33 41 18 67 41 46 41 -11 0 -72
-32 -106 -56 -30 -21 -40 -17 -19 8 l19 22 -28 -18 c-16 -10 -31 -15 -34 -12
-4 3 -12 1 -20 -5 -29 -25 -10 8 30 50 35 38 22 31 -29 -15 -16 -14 -86 -154
-77 -154 4 0 1 -6 -5 -12 -10 -10 -15 -10 -21 1 -12 18 13 88 41 118 29 31 15
29 -51 -8 -48 -27 -53 -28 -36 -9 22 25 86 60 109 60 8 0 25 13 38 29 14 16
47 38 74 51 51 22 154 35 154 19 0 -5 -7 -9 -16 -9 -8 0 -12 -5 -9 -11 4 -6
-3 -13 -16 -16 -22 -6 -22 -7 -3 -14 20 -7 74 33 74 57 0 11 14 15 94 29 17 2
34 11 38 19 5 8 17 13 28 11 11 -2 20 -1 20 3 0 12 118 8 131 -5z m-41 -97 c0
-8 5 -16 12 -18 8 -3 7 -11 -5 -28 -9 -14 -17 -20 -17 -15 0 13 -23 -12 -26
-28 -1 -8 4 -14 12 -14 7 0 11 4 8 8 -2 4 0 10 5 13 10 7 19 -21 14 -45 -2 -8
-17 -23 -34 -33 -38 -22 -70 -57 -63 -68 3 -4 9 -6 14 -3 5 3 11 1 14 -4 3 -5
-8 -7 -24 -6 -16 1 -27 -1 -25 -6 3 -4 1 -11 -5 -14 -8 -5 -7 -11 1 -21 11
-13 5 -19 -15 -15 -5 1 -4 -4 1 -11 16 -19 -6 -46 -43 -52 -16 -2 -31 -5 -34
-6 -3 -1 -8 -2 -11 -2 -4 1 -4 -8 -1 -20 3 -12 1 -19 -5 -15 -12 7 -11 -52 1
-72 6 -10 5 -12 -2 -7 -7 4 -12 1 -12 -9 0 -9 4 -14 10 -10 5 3 3 -6 -4 -20
-14 -27 -10 -69 5 -59 5 3 7 9 5 13 -3 4 6 7 20 7 19 0 24 -5 24 -27 0 -14 -7
-46 -15 -70 -9 -24 -13 -49 -10 -57 2 -7 1 -11 -4 -8 -4 3 -23 -10 -41 -29
-28 -29 -36 -33 -49 -22 -14 10 -14 10 -4 -4 7 -9 9 -20 5 -24 -4 -5 0 -4 8 0
13 8 13 6 1 -8 -13 -17 -36 -14 -26 4 10 15 -2 10 -16 -8 -12 -15 -12 -16 1
-8 13 8 13 6 1 -8 -7 -9 -17 -15 -21 -12 -5 3 -12 1 -15 -5 -5 -8 -12 -7 -23
2 -12 10 -14 10 -8 1 6 -10 -35 -13 -188 -14 -418 -3 -475 -4 -482 -12 -4 -4
0 -7 9 -7 21 0 22 -17 2 -37 -8 -8 -13 -19 -10 -24 10 -15 -2 -10 -16 8 -12
14 -12 16 0 8 10 -5 12 -4 7 3 -4 7 -14 12 -22 12 -8 0 -13 6 -11 13 1 6 -5
11 -13 9 -12 -3 -12 -1 -3 9 10 10 9 16 -4 31 -9 10 -13 18 -8 18 4 0 3 6 -3
13 -8 9 13 13 101 15 116 2 240 9 245 12 1 2 53 3 115 4 85 1 111 5 109 15 -1
7 2 10 8 6 6 -3 8 -10 6 -14 -3 -3 11 -7 29 -7 25 0 31 3 24 12 -6 7 -4 16 6
24 8 7 15 18 15 26 0 7 4 15 9 19 6 3 8 -3 6 -15 -2 -11 1 -22 6 -25 5 -4 7
-10 4 -15 -7 -12 20 -6 37 8 8 6 17 10 20 7 2 -3 5 2 5 10 0 13 -3 13 -18 -1
-20 -18 -27 -10 -24 28 1 17 -2 25 -9 21 -6 -4 -3 2 6 13 10 11 20 31 22 45 2
13 5 26 6 29 1 3 1 14 0 25 -1 11 2 17 6 12 4 -4 16 5 26 20 16 23 19 25 17 8
-3 -38 1 -52 14 -52 8 0 14 6 14 13 0 7 -5 10 -11 7 -6 -4 -5 1 3 10 7 9 10
17 6 17 -4 0 -3 6 2 13 6 6 9 24 8 39 -1 15 3 26 9 25 6 -1 9 5 8 13 -2 8 0
11 4 7 10 -10 14 -37 6 -36 -19 3 -23 -2 -13 -15 8 -10 9 -16 1 -21 -15 -9
-12 -32 4 -32 9 0 12 10 11 29 -1 15 1 31 6 34 5 3 7 9 4 14 -3 5 -1 12 5 15
8 5 7 12 -2 23 -10 12 -10 14 0 8 8 -5 12 2 12 23 0 17 -4 31 -10 31 -21 0
-25 2 -43 17 -9 9 -19 14 -22 12 -9 -10 -26 -149 -19 -160 4 -8 3 -9 -4 -5 -7
4 -12 1 -12 -7 0 -8 -8 -21 -17 -28 -15 -12 -16 -12 -7 1 15 24 33 120 33 181
1 30 6 60 13 67 16 16 41 15 33 0 -4 -7 0 -5 9 6 9 11 19 15 28 10 23 -15 33
-12 45 12 8 18 8 22 0 17 -23 -14 40 61 64 76 l24 15 -19 -22 c-11 -12 -16
-22 -13 -22 4 0 -2 -16 -13 -36 -11 -19 -16 -33 -10 -29 5 3 10 -1 10 -9 0
-13 4 -13 26 -1 28 14 60 74 68 127 2 18 5 33 6 33 1 0 3 12 4 28 2 33 -13 35
-43 3 -23 -24 -36 -27 -59 -12 -21 13 13 44 83 77 65 32 115 38 115 15z m-547
-23 c-7 -3 -13 -10 -13 -17 0 -7 -16 -18 -35 -25 -19 -7 -56 -28 -80 -47 -48
-36 -61 -42 -49 -21 10 16 -24 -11 -53 -43 -12 -14 -28 -40 -35 -57 -7 -18
-18 -33 -26 -33 -10 0 -11 4 -5 13 5 6 10 26 12 42 1 17 12 40 24 53 24 26 12
29 -22 5 -13 -9 -44 -17 -68 -18 l-45 -3 34 37 33 36 -37 -34 c-20 -18 -51
-62 -69 -97 -18 -36 -36 -67 -41 -70 -10 -6 -11 20 -1 30 4 3 8 16 10 27 7 45
113 155 140 145 8 -3 11 -2 8 4 -7 11 25 29 42 23 7 -3 22 2 34 11 17 12 27
13 43 4 15 -8 21 -8 24 1 2 6 15 11 28 11 17 0 23 -4 18 -12 -4 -7 -3 -8 5 -4
6 4 9 11 6 16 -3 4 2 11 11 14 9 3 12 2 8 -5 -4 -7 -1 -7 12 0 25 14 88 29 94
23 3 -3 -1 -7 -7 -9z m1275 -383 c17 4 32 5 32 2 0 -3 9 3 20 13 11 10 20 15
20 10 0 -4 8 -1 17 6 10 8 14 9 10 2 -4 -6 -3 -14 2 -17 5 -3 6 -20 2 -38 -6
-28 -11 -33 -39 -36 -18 -2 -58 2 -90 9 -73 16 -142 18 -142 5 0 -7 -3 -8 -8
-1 -11 16 -29 16 -42 0 -9 -11 -7 -12 9 -8 28 7 28 -20 1 -83 -19 -43 -19 -49
-5 -70 20 -31 28 -30 59 7 l26 31 0 -27 c0 -40 21 -18 44 44 17 47 37 78 32
49 -10 -52 -21 -92 -43 -151 l-25 -67 24 -29 c36 -46 63 -85 63 -93 0 -3 3
-10 7 -14 4 -3 6 3 3 15 -2 11 1 21 6 21 5 0 9 -18 7 -40 l-2 -40 -28 27 c-15
14 -25 29 -23 33 2 4 -2 7 -10 7 -8 0 -13 -3 -12 -6 1 -3 -2 -6 -8 -6 -5 0 -9
3 -8 6 1 3 -4 6 -12 6 -8 0 -13 -5 -12 -11 3 -16 -46 -14 -68 3 -11 9 -17 12
-12 7 4 -5 -1 -18 -10 -29 -13 -15 -14 -18 -3 -12 13 7 13 6 0 -8 -8 -8 -24
-17 -35 -19 -15 -2 -20 3 -20 22 0 19 -5 25 -22 24 -12 -1 -21 1 -20 5 1 3 -1
6 -4 6 -4 0 -16 8 -26 18 -11 9 -23 14 -28 10 -4 -5 -5 -2 -1 5 6 9 11 10 20
3 9 -8 13 -7 13 3 0 22 -24 13 -64 -25 -20 -19 -32 -27 -27 -19 13 24 14 73 1
89 -9 11 -9 13 0 8 14 -9 11 19 -4 34 -8 8 -13 7 -18 -2 -6 -8 -4 -10 6 -4 8
5 11 5 7 1 -8 -9 -18 -9 -19 2 0 4 -6 13 -12 21 -10 12 -9 13 3 6 10 -5 12 -5
5 3 -13 13 -56 19 -72 9 -16 -10 -44 48 -30 62 6 6 7 11 3 11 -5 0 -2 7 5 17
8 9 15 24 15 35 1 10 2 29 3 42 1 24 14 28 39 12 10 -6 10 -11 1 -22 -10 -12
-10 -15 1 -12 8 2 15 -4 15 -12 0 -8 6 -14 12 -13 6 1 18 -6 28 -17 14 -16 15
-18 1 -16 -8 1 -18 4 -20 7 -3 2 -23 3 -44 1 -38 -4 -40 -5 -35 -35 4 -29 4
-30 -14 -16 -16 13 -17 12 -5 -3 13 -17 34 -15 60 5 6 5 12 6 12 3 0 -4 6 -4
13 1 17 10 77 11 83 1 3 -5 9 -6 14 -3 11 7 7 -22 -5 -32 -4 -4 -5 -2 0 6 5
10 4 12 -4 7 -6 -4 -11 -4 -10 1 4 20 -2 24 -18 12 -9 -8 -14 -9 -10 -3 3 6 0
11 -8 11 -11 0 -12 -4 -3 -14 6 -7 13 -11 16 -8 3 3 14 -3 25 -12 10 -10 22
-18 26 -18 3 0 5 -3 4 -6 -1 -3 5 -6 13 -6 12 0 12 3 -2 18 -10 11 -12 19 -4
24 5 3 7 11 4 17 -4 6 -2 8 3 5 6 -4 16 -1 22 7 7 8 20 13 29 11 9 -1 22 1 28
6 7 5 11 3 11 -6 0 -8 -4 -12 -8 -9 -4 2 -10 0 -14 -5 -3 -5 -14 -8 -25 -6
-11 2 -20 -1 -20 -6 0 -5 8 -9 17 -7 10 2 18 -3 19 -9 1 -7 3 -16 4 -20 1 -5
2 -11 2 -14 -1 -3 5 -6 12 -6 7 0 13 6 13 13 0 7 -3 12 -6 11 -3 -1 -6 3 -6 8
0 6 3 9 7 8 5 -2 7 3 5 10 -1 6 3 11 10 10 18 -4 9 24 -20 57 -15 16 -27 34
-27 38 0 5 -23 8 -50 7 -28 -1 -53 2 -56 7 -3 4 16 8 41 8 61 0 49 19 -13 22
-44 1 -44 2 -9 5 42 5 45 11 18 45 -16 20 -27 24 -66 22 -26 -1 -51 -8 -55
-14 -6 -9 -24 -11 -65 -6 -40 4 -62 3 -73 -6 -13 -11 -14 -11 -7 2 7 12 6 13
-6 4 -18 -13 -99 -12 -99 1 0 10 4 11 36 14 9 0 12 6 8 13 -4 6 -3 8 4 4 6 -3
14 -1 17 4 5 8 13 6 25 -5 14 -12 20 -13 26 -4 5 8 3 10 -7 4 -8 -5 -11 -4 -6
1 11 11 56 13 63 2 10 -16 68 -7 110 17 29 17 42 21 38 11 -4 -11 1 -13 27 -9
29 4 31 3 20 -11 -8 -9 -12 -16 -10 -17 35 -7 36 -6 31 15 -3 11 -1 18 3 13 5
-4 16 0 26 9 11 10 19 12 24 4 3 -5 12 -7 18 -3 7 4 35 8 64 8 45 1 51 -1 40
-15 -8 -10 -5 -10 9 2 16 14 23 15 32 6 7 -7 28 -13 47 -14 29 -1 33 1 24 12
-6 8 -16 11 -22 7 -6 -4 -7 -1 -2 6 5 9 14 6 34 -12 21 -19 32 -23 59 -17z
m878 -145 c46 -19 86 -54 77 -68 -3 -6 -2 -7 4 -4 5 3 24 -9 42 -27 20 -21 26
-33 17 -33 -8 0 -14 5 -13 11 1 6 -8 10 -21 10 -16 -1 -20 2 -12 11 7 8 6 12
-4 12 -17 0 -15 -43 3 -59 9 -9 12 -9 7 -1 -3 6 -2 14 3 17 10 7 9 -20 -2 -30
-3 -4 -3 -12 0 -18 13 -20 10 -56 -4 -56 -7 0 -13 4 -13 10 0 23 -71 87 -109
99 -110 33 -156 18 -128 -41 9 -18 14 -36 11 -40 -2 -4 5 -5 17 -3 17 3 19 2
9 -10 -7 -8 -17 -12 -24 -8 -6 3 -3 -3 7 -14 9 -11 15 -22 12 -25 -3 -2 1 -5
7 -5 9 0 14 18 15 50 1 28 9 57 18 66 8 10 13 20 10 23 -3 2 2 5 10 5 9 0 11
-4 6 -11 -5 -6 -7 -20 -4 -31 2 -11 6 -42 8 -70 1 -27 3 -53 4 -57 1 -10 55
-10 65 -1 12 13 33 11 33 -3 0 -7 -4 -11 -9 -8 -4 3 -8 -2 -8 -10 0 -9 -3 -15
-7 -15 -26 4 -43 -2 -37 -13 6 -10 4 -10 -8 0 -9 7 -35 13 -57 14 -28 0 -38 4
-34 12 13 19 11 33 -3 33 -7 0 -11 -4 -8 -8 2 -4 0 -10 -6 -14 -6 -4 -8 -10
-5 -15 3 -4 -3 -14 -13 -21 -9 -7 -14 -9 -10 -5 4 5 3 15 -4 23 -9 11 -8 13 1
11 8 -2 15 5 16 16 3 15 -1 14 -24 -8 -15 -14 -31 -23 -35 -19 -4 5 -7 3 -6
-2 5 -21 -1 -27 -14 -16 -11 9 -16 9 -22 0 -4 -7 -3 -9 4 -5 6 3 14 1 17 -4 5
-8 13 -6 25 5 12 11 20 13 25 5 4 -6 1 -9 -7 -8 -7 2 -12 -3 -10 -9 1 -7 -4
-12 -10 -10 -7 1 -12 -4 -10 -11 1 -6 -4 -11 -10 -10 -7 2 -12 -3 -10 -10 1
-6 -4 -11 -10 -10 -8 2 -13 -8 -12 -28 0 -18 -5 -31 -12 -31 -7 0 -12 5 -11
11 1 6 -3 10 -9 9 -6 -1 -11 4 -11 12 0 8 4 13 8 12 4 -1 7 3 7 8 0 6 -3 9 -7
8 -4 -1 -8 4 -8 11 0 14 14 16 33 3 6 -3 19 2 28 12 13 14 14 18 2 18 -8 0
-14 -3 -13 -6 1 -3 -2 -7 -8 -8 -5 -2 -10 7 -10 19 0 12 -7 23 -15 26 -8 3
-22 11 -31 18 -14 13 -17 9 -28 -26 -17 -59 -16 -218 2 -236 4 -4 7 -17 7 -29
0 -12 3 -25 8 -29 4 -4 7 -17 7 -29 1 -12 6 -21 11 -20 6 1 11 -4 11 -11 0 -7
-6 -13 -13 -13 -7 0 -12 3 -11 6 1 3 -2 6 -8 6 -5 0 -9 -3 -7 -8 1 -4 -1 -6
-5 -5 -5 2 -8 -1 -8 -7 0 -5 3 -9 6 -8 3 1 6 -4 6 -11 0 -7 -6 -13 -13 -13 -7
0 -12 5 -11 11 1 6 -4 10 -12 8 -11 -2 -12 0 -3 11 7 8 8 18 4 22 -4 5 -2 5 4
2 6 -4 20 3 30 14 10 11 14 20 9 19 -21 -5 -27 1 -16 14 8 10 9 16 1 21 -6 4
-9 1 -8 -7 2 -7 -3 -12 -10 -10 -6 1 -11 -4 -10 -10 2 -7 -3 -12 -10 -10 -6 1
-11 -3 -10 -10 2 -7 -2 -12 -9 -13 -6 0 -15 -4 -20 -9 -5 -5 -2 -6 6 -1 10 5
12 4 7 -4 -5 -7 -2 -10 5 -9 7 2 14 -3 15 -9 1 -7 3 -15 4 -18 1 -3 3 -11 4
-17 1 -7 8 -12 15 -10 7 1 10 -2 7 -7 -4 -5 10 -30 29 -55 28 -37 30 -44 13
-34 -36 21 -43 30 -91 121 -7 12 -16 29 -22 37 -14 21 -15 41 -3 34 7 -5 8 -2
2 7 -5 8 -9 23 -9 34 -1 12 -7 19 -15 17 -11 -3 -11 0 -1 12 6 8 8 17 3 20 -4
2 -9 56 -10 118 -1 62 -2 119 -2 126 0 7 -5 10 -10 7 -12 -8 -9 17 3 26 11 8
26 76 19 83 -3 4 -13 6 -23 6 -12 0 -16 5 -13 15 3 8 11 13 16 12 16 -3 16 52
-1 58 -18 7 -55 -25 -42 -38 5 -5 5 -23 -1 -45 -19 -71 -22 -105 -8 -97 9 5
11 4 6 -4 -4 -6 -12 -9 -17 -6 -5 4 -12 -1 -15 -9 -3 -9 -14 -16 -24 -16 -26
0 -32 75 -8 97 18 16 15 38 -4 27 -7 -4 -8 4 -3 26 6 26 4 31 -6 25 -8 -5 -11
-4 -6 1 5 5 14 9 20 9 5 0 12 6 15 14 3 9 0 11 -9 6 -8 -5 -11 -4 -6 1 5 5 10
7 12 4 2 -3 20 11 39 29 20 19 36 31 36 27 0 -5 10 4 23 20 12 16 22 32 22 35
0 4 4 11 9 16 5 5 6 3 2 -4 -4 -8 -1 -13 9 -13 10 0 15 -6 13 -17 -2 -10 -10
-17 -17 -15 -7 1 -10 -2 -6 -8 3 -6 11 -8 16 -5 17 11 9 -8 -13 -34 -13 -14
-2 -7 23 16 57 51 92 69 144 76 22 3 41 10 43 16 2 6 7 9 11 6 4 -2 21 0 37 4
41 12 125 5 170 -14z m-1526 -12 c0 -5 -7 -17 -15 -27 -8 -10 -12 -22 -10 -27
3 -4 1 -10 -4 -14 -7 -4 -7 -15 -1 -31 7 -17 7 -23 0 -19 -6 3 -10 -1 -10 -9
0 -9 4 -15 9 -13 5 1 9 -2 9 -8 0 -5 -4 -9 -9 -7 -5 1 -8 -2 -6 -7 1 -5 -2 -9
-8 -9 -5 0 -9 3 -8 7 1 4 -5 8 -13 8 -11 0 -9 -6 6 -22 11 -12 17 -26 13 -31
-5 -5 -4 -6 1 -1 5 4 17 0 27 -9 11 -10 19 -12 24 -4 4 6 1 9 -7 8 -7 -2 -12
3 -10 9 1 7 -1 12 -6 10 -4 -1 -8 3 -9 8 0 6 3 9 9 7 5 -1 7 2 4 7 -9 15 17
29 39 21 25 -10 85 -69 86 -87 1 -7 3 -17 4 -23 1 -5 3 -14 4 -20 2 -19 35
-10 58 16 24 28 54 25 31 -4 -11 -13 -11 -14 1 -7 11 6 12 5 5 -6 -5 -8 -9
-22 -10 -31 -3 -31 -4 -33 -15 -18 -8 12 -10 9 -6 -12 5 -35 -3 -35 -42 -2
-17 14 -39 26 -51 27 -11 1 -20 7 -20 15 0 7 -5 10 -12 6 -7 -5 -8 -3 -2 7 13
21 12 56 -2 56 -12 0 -13 -14 -2 -33 4 -6 1 -11 -7 -11 -8 0 -13 5 -12 11 1 6
-4 10 -12 8 -11 -2 -12 0 -2 11 9 12 7 14 -18 12 -17 -1 -29 2 -28 8 1 6 -3
11 -10 12 -14 0 -28 13 -28 26 0 5 -4 8 -10 7 -5 -2 -8 -7 -7 -13 2 -5 0 -6
-5 -2 -4 5 -8 12 -8 15 0 4 -4 13 -9 21 -6 9 -5 12 1 8 6 -4 16 0 23 8 7 8 16
13 19 10 4 -2 8 2 8 10 0 8 -4 12 -9 9 -4 -3 -8 1 -8 10 0 8 6 16 13 19 17 6
6 16 -24 20 -29 5 -32 19 -5 23 11 1 31 14 45 28 25 26 41 33 41 19z m745 -59
c13 -13 13 -19 3 -32 -11 -13 -11 -14 2 -7 11 6 10 3 -3 -12 -9 -11 -14 -23
-10 -28 5 -4 2 -5 -5 -1 -9 6 -12 -1 -10 -27 2 -34 2 -34 45 -30 30 2 48 -1
63 -14 25 -21 55 -81 46 -90 -3 -3 -6 1 -6 10 0 9 -5 16 -12 14 -6 -1 -18 10
-25 26 -8 15 -21 28 -29 28 -87 8 -104 4 -104 -21 0 -11 -5 -22 -10 -25 -6 -4
-7 -12 -3 -18 11 -18 12 -38 2 -31 -5 3 -9 -3 -9 -13 0 -15 -2 -16 -10 -3 -5
8 -10 36 -10 63 0 42 -3 49 -27 59 l-28 12 33 4 c17 2 32 8 32 13 0 6 -4 7
-10 4 -5 -3 -10 -3 -10 0 0 3 13 11 29 16 33 12 47 44 24 54 -14 5 -13 8 2 25
10 11 15 20 11 20 -4 0 -4 5 -1 10 8 13 11 13 30 -6z m-987 -103 c-2 -18 3
-22 15 -13 10 9 22 3 50 -25 32 -30 35 -38 25 -51 -8 -10 -8 -13 -2 -9 7 4 18
-1 25 -10 8 -9 9 -14 3 -10 -6 3 -11 0 -11 -7 0 -21 23 -13 55 17 37 35 45 26
20 -24 -14 -30 -16 -44 -8 -54 21 -26 -9 -27 -35 -1 -14 14 -25 22 -25 19 0
-3 -6 0 -14 6 -10 9 -16 9 -21 1 -5 -8 -10 -8 -20 0 -10 8 -15 8 -20 0 -4 -7
-11 -7 -18 -2 -7 5 -24 8 -39 7 -15 -1 -26 3 -25 9 1 6 -4 10 -10 9 -7 -2 -12
3 -10 10 1 7 -7 12 -19 11 -24 -1 -26 15 -5 40 12 15 8 20 -11 17 -12 -2 -9 5
8 19 8 8 14 9 12 3 -2 -6 2 -10 7 -9 6 0 9 4 8 7 -1 3 4 6 12 6 8 0 13 -5 12
-10 -1 -5 5 -11 14 -12 9 -2 16 3 16 11 0 7 -3 11 -7 9 -3 -2 -6 7 -6 19 0 12
6 23 12 23 7 0 13 -3 12 -6z m-119 -241 c45 -22 51 -29 52 -57 1 -18 2 -39 3
-45 1 -7 -3 -19 -8 -27 -8 -11 -8 -13 2 -7 7 4 12 1 12 -9 0 -9 -4 -14 -9 -11
-5 4 -7 -3 -4 -14 11 -40 -70 -127 -117 -125 -14 0 -24 6 -22 13 1 7 -1 11 -5
10 -5 -2 -8 2 -8 7 0 6 3 9 6 8 3 -1 6 4 6 11 0 8 -7 13 -16 11 -9 -1 -16 -7
-16 -13 0 -7 -4 -12 -10 -12 -5 0 -10 6 -10 13 0 6 -10 12 -23 11 -20 -1 -28
18 -24 57 1 3 -5 6 -13 6 -8 0 -12 -4 -9 -8 2 -4 0 -11 -6 -14 -10 -6 -6 56 6
93 2 7 -1 10 -6 7 -6 -3 -10 3 -10 14 0 19 -6 21 -70 22 -38 1 -83 3 -100 4
-16 1 -39 3 -50 4 -20 1 -20 2 -4 26 30 45 52 50 233 50 160 0 171 -1 220 -25z
m-384 -180 c-4 -6 8 -11 29 -11 20 -1 53 -2 74 -3 22 0 47 -8 57 -16 11 -8 16
-10 12 -3 -4 6 -3 14 3 18 6 4 10 -6 10 -23 0 -30 24 -51 34 -29 3 7 4 3 3 -8
-1 -14 4 -20 18 -20 26 -1 47 -14 40 -25 -3 -5 -16 -5 -31 0 -14 6 -38 10 -53
10 -15 0 -31 3 -34 7 -4 4 -31 7 -60 8 -28 1 -67 3 -85 4 -24 1 -44 11 -68 35
-44 44 -44 58 0 55 19 -2 38 0 42 4 11 10 16 9 9 -3z m-16 -172 c11 -11 12
-10 6 2 -8 13 -7 13 10 0 10 -8 21 -15 24 -15 3 0 5 -3 4 -6 -1 -3 4 -6 12 -6
8 0 12 4 9 8 -2 4 0 10 6 14 5 3 10 0 10 -9 0 -9 8 -13 26 -11 17 2 24 -2 20
-11 -3 -8 2 -11 16 -9 16 3 19 2 11 -6 -8 -8 3 -29 42 -74 65 -78 66 -100 4
-101 -24 0 -50 4 -57 10 -8 6 -23 11 -34 13 -50 8 -176 112 -162 134 4 7 3 9
-3 6 -11 -7 -34 15 -52 51 -11 21 -10 22 42 22 29 0 59 -6 66 -12z m1561 -217
c0 -22 -37 -26 -261 -26 -195 0 -239 -3 -254 -15 -10 -8 -21 -14 -24 -14 -3 1
-5 -2 -3 -7 1 -5 -4 -8 -10 -7 -7 2 -11 -4 -10 -12 2 -8 0 -12 -4 -7 -10 10
-85 -63 -77 -76 3 -6 1 -7 -5 -3 -7 4 -12 1 -12 -9 0 -9 4 -14 8 -11 5 3 9 -1
9 -8 0 -8 -7 -13 -16 -11 -9 1 -20 0 -26 -4 -20 -12 -54 -11 -61 1 -4 7 -3 10
1 5 12 -10 66 43 58 57 -3 6 -2 8 2 3 11 -9 95 72 95 91 0 7 4 11 9 7 5 -3 12
-1 15 4 15 23 126 35 319 33 118 -2 205 1 215 7 22 13 32 14 32 2z"/>
<path d="M3999 2148 c12 -16 9 -22 -11 -19 -8 1 -5 -20 5 -36 5 -8 1 -11 -14
-8 -16 3 -18 1 -10 -9 9 -10 3 -13 -29 -11 -22 1 -40 -3 -40 -9 0 -5 -15 -25
-32 -43 -40 -41 -29 -53 48 -53 27 0 55 -5 62 -10 9 -7 9 -7 2 2 -15 18 -12
54 7 69 15 13 15 12 3 -7 -15 -24 -8 -54 14 -54 10 0 13 10 11 35 -2 19 0 37
4 40 9 5 8 45 -1 60 -3 6 -4 18 -3 27 2 9 -4 23 -13 30 -15 12 -16 11 -3 -4z"/>
<path d="M4345 2050 c-4 -6 -11 -8 -16 -5 -11 7 -12 -18 -1 -29 4 -4 7 -13 7
-19 1 -7 5 -11 11 -10 5 1 11 -7 11 -18 1 -10 11 -33 23 -49 12 -16 19 -34 16
-39 -3 -4 4 -17 16 -27 12 -11 18 -14 15 -7 -4 6 -3 14 3 18 5 3 10 0 10 -8 0
-21 26 -41 35 -27 5 8 11 8 19 1 7 -6 17 -7 21 -3 5 4 5 1 1 -6 -6 -11 -11
-11 -24 0 -15 11 -15 11 -4 -3 8 -11 25 -15 55 -14 48 4 103 22 93 32 -3 4 6
19 21 35 31 33 38 57 14 53 -9 -1 -21 2 -28 7 -7 5 -14 5 -18 -2 -3 -6 -11 -8
-16 -5 -5 4 -19 3 -30 0 -21 -7 -22 -17 -4 -81 5 -14 2 -21 -8 -21 -8 0 -13 6
-10 13 3 7 0 29 -7 49 -9 27 -17 35 -36 35 -38 0 -79 25 -115 72 -19 24 -37
45 -41 46 -5 2 -6 8 -2 13 3 5 3 9 0 9 -3 0 -8 -5 -11 -10z"/>
</g>
</svg>
